<svg width="948" height="1200" viewBox="0 0 948 1200" fill="none" xmlns="http://www.w3.org/2000/svg">
    <path d="M727.054 918.985C717.506 915.054 705.151 913.37 692.796 916.178L623.159 928.533C609.68 931.341 597.325 931.341 586.093 928.533C564.191 924.601 547.905 913.37 536.673 895.96C523.195 875.743 514.771 838.678 514.771 802.174V549.457H637.76C668.086 549.457 695.043 530.362 703.467 503.406C709.083 484.312 706.275 464.094 692.796 446.123C680.441 429.837 662.47 420.29 643.376 420.29H248.014C215.441 420.29 185.115 451.739 185.115 485.435C185.115 501.721 191.854 518.007 204.209 530.362C216.565 542.717 231.728 547.772 248.014 547.772H353.593V811.159C353.593 847.663 357.525 883.044 365.949 914.493C374.372 945.942 386.728 971.775 404.137 991.993C422.108 1013.89 445.133 1030.18 473.775 1042.54C502.416 1054.89 539.481 1059.95 580.477 1059.95C623.159 1059.95 659.662 1054.33 692.796 1042.54C705.151 1038.61 717.506 1032.99 730.985 1026.25C750.079 1015.58 762.434 994.801 762.434 973.46C764.119 949.873 748.956 928.533 727.054 918.985Z"
          fill="#3875C5"/>
    <path d="M435.585 140.054C376.618 140.054 328.882 191.721 335.621 251.25C341.237 297.301 378.302 334.366 424.353 339.42C486.129 346.159 536.672 298.424 536.672 240.018C535.549 184.982 490.06 140.054 435.585 140.054Z"
          fill="#3875C5"/>
</svg>
